<svg xmlns="http://www.w3.org/2000/svg" version="1.1" xmlns:xlink="http://www.w3.org/1999/xlink" xmlns:svgjs="http://svgjs.dev/svgjs" width="1000" height="161" viewBox="0 0 1000 161"><g transform="matrix(1,0,0,1,-0.6060606060606233,-0.40873065015479426)"><svg viewBox="0 0 396 64" data-background-color="#faf9f8" preserveAspectRatio="xMidYMid meet" height="161" width="1000" xmlns="http://www.w3.org/2000/svg" xmlns:xlink="http://www.w3.org/1999/xlink"><g id="tight-bounds" transform="matrix(1,0,0,1,0.2400000000000091,0.16247678018575584)"><svg viewBox="0 0 395.52 63.675046439628474" height="63.675046439628474" width="395.52"><g><svg viewBox="0 0 395.52 63.675046439628474" height="63.675046439628474" width="395.52"><g><svg viewBox="0 0 395.52 63.675046439628474" height="63.675046439628474" width="395.52"><g id="textblocktransform"><svg viewBox="0 0 395.52 63.675046439628474" height="63.675046439628474" width="395.52" id="textblock"><g><svg viewBox="0 0 395.52 63.675046439628474" height="63.675046439628474" width="395.52"><g transform="matrix(1,0,0,1,0,0)"><svg width="395.52" viewBox="2.5 -35.9 226.09 36.4" height="63.675046439628474" data-palette-color="#e50010"><path d="M15.5 0.5L15.5 0.5Q12.75 0.5 10.3-0.03 7.85-0.55 6.05-1.3 4.25-2.05 3.4-2.7L3.4-2.7 3.4-11.65Q5.8-10.3 9.45-9.13 13.1-7.95 17.55-7.95L17.55-7.95Q19.35-7.95 20.23-8.43 21.1-8.9 21.1-10.1L21.1-10.1Q21.1-11.4 19.13-12.28 17.15-13.15 12.9-14.45L12.9-14.45Q9.6-15.5 7.28-16.78 4.95-18.05 3.73-19.98 2.5-21.9 2.5-24.9L2.5-24.9Q2.5-28 4.1-30.5 5.7-33 9.1-34.45 12.5-35.9 17.8-35.9L17.8-35.9Q19.4-35.9 21.23-35.77 23.05-35.65 24.15-35.45L24.15-35.45 29.8-31.3 27.85-25.2 16-28.45Q13.95-28.45 12.98-27.6 12-26.75 12-25.55L12-25.55Q12-24.1 13.65-23.25 15.3-22.4 18.4-21.55L18.4-21.55Q23.3-20.2 26-18.55 28.7-16.9 29.8-14.83 30.9-12.75 30.9-10.15L30.9-10.15Q30.9-5.35 27.05-2.43 23.2 0.5 15.5 0.5ZM45.9 0L36.4 0 36.4-27.35 35.9-32.35 36.4-35.4 45.4-35.4 45.4-21.85 57.85-21.85 57.85-35.4 66.85-35.4 66.85-16.6 67.35-13.15 67.35 0 57.85 0 57.85-13.2 45.4-13.2 45.4-10.2 45.9 0ZM89.3 0.5L89.3 0.5Q86.09 0.5 83.07-0.28 80.05-1.05 77.62-3.05 75.19-5.05 73.77-8.6 72.34-12.15 72.34-17.7L72.34-17.7Q72.34-23.25 73.77-26.8 75.19-30.35 77.62-32.35 80.05-34.35 83.07-35.13 86.09-35.9 89.3-35.9L89.3-35.9Q92.5-35.9 95.52-35.1 98.55-34.3 100.97-32.3 103.4-30.3 104.82-26.75 106.25-23.2 106.25-17.7L106.25-17.7Q106.25-12.2 104.82-8.65 103.4-5.1 100.97-3.1 98.55-1.1 95.52-0.3 92.5 0.5 89.3 0.5ZM89.3-8L89.3-8Q93-8 94.89-10.2 96.8-12.4 96.8-17.7L96.8-17.7Q96.8-23 94.89-25.2 93-27.4 89.3-27.4L89.3-27.4Q85.64-27.4 83.75-25.15 81.84-22.9 81.84-17.7L81.84-17.7Q81.84-12.5 83.75-10.25 85.64-8 89.3-8ZM121.24 0L112.24 0 112.24-27.35 111.24-32.4 112.24-35.4 128.24-35.4Q131.89-35.4 134.82-34.27 137.74-33.15 139.47-30.48 141.19-27.8 141.19-23.1L141.19-23.1Q141.19-18.4 139.34-15.68 137.49-12.95 134.22-11.8 130.94-10.65 126.74-10.65L126.74-10.65 121.24-10.65 121.24-8.05 121.74-3.05 121.24 0ZM120.74-27.4L121.24-18.5 126.14-18.5Q128.74-18.5 130.29-19.48 131.84-20.45 131.84-23.1L131.84-23.1Q131.84-24.95 131.09-25.88 130.34-26.8 129.02-27.1 127.69-27.4 125.94-27.4L125.94-27.4 120.74-27.4ZM156.69 0L147.69 0 147.69-27.35 146.69-32.4 147.69-35.4 163.69-35.4Q167.34-35.4 170.26-34.27 173.19-33.15 174.91-30.48 176.64-27.8 176.64-23.1L176.64-23.1Q176.64-18.4 174.79-15.68 172.94-12.95 169.66-11.8 166.39-10.65 162.19-10.65L162.19-10.65 156.69-10.65 156.69-8.05 157.19-3.05 156.69 0ZM156.19-27.4L156.69-18.5 161.59-18.5Q164.19-18.5 165.74-19.48 167.29-20.45 167.29-23.1L167.29-23.1Q167.29-24.95 166.54-25.88 165.79-26.8 164.47-27.1 163.14-27.4 161.39-27.4L161.39-27.4 156.19-27.4ZM191.69 0L182.64 0 182.64-27.4 182.14-32.4 182.64-35.4 191.69-35.4 191.69 0ZM225.63 0L198.69 0 197.69-3 198.69-8 198.69-35.4 223.44-35.4 225.94-33.9 222.63-26.9 218.13-27.4 207.69-27.4 207.69-21.9 221.13-21.9 221.13-14.15 215.24-14.15 207.69-14.65 207.69-8 222.63-8 228.59-3.2 225.63 0Z" opacity="1" transform="matrix(1,0,0,1,0,0)" fill="#e50010" class="wordmark-text-0" data-fill-palette-color="primary" id="text-0"></path></svg></g></svg></g></svg></g></svg></g></svg></g><defs></defs></svg><rect width="395.52" height="63.675046439628474" fill="none" stroke="none" visibility="hidden"></rect></g></svg></g></svg>